<?xml version="1.0" encoding="utf-8"?>
<!-- Generator: Adobe Illustrator 23.0.0, SVG Export Plug-In . SVG Version: 6.00 Build 0)  -->
<svg version="1.1" id="Capa_1" xmlns="http://www.w3.org/2000/svg" xmlns:xlink="http://www.w3.org/1999/xlink" x="0px" y="0px"
	 viewBox="0 0 488.5 488.5" style="enable-background:new 0 0 488.5 488.5;" xml:space="preserve">
<style type="text/css">
	.st0{fill:#FE3A3A;}
</style>
<g>
	<path class="st0" d="M484.1,412L271.9,44.4c-12.3-21.3-43.1-21.3-55.4,0L4.3,412C-8,433.3,7.4,460,32,460h424.4
		C481,460,496.4,433.3,484.1,412z M244.5,157.6c13.6,0,24.6,11.3,24.2,24.9l-4,139.6c-0.3,11-9.3,19.7-20.3,19.7s-20-8.8-20.3-19.7
		l-3.9-139.6C219.9,168.9,230.8,157.6,244.5,157.6z M244.2,410.1c-13.9,0-25.2-11.3-25.2-25.2c0-13.9,11.3-25.2,25.2-25.2
		s25.2,11.3,25.2,25.2S258.1,410.1,244.2,410.1z"/>
</g>
</svg>
