<?xml version="1.0" encoding="utf-8"?>
<!-- Generator: Adobe Illustrator 23.0.0, SVG Export Plug-In . SVG Version: 6.00 Build 0)  -->
<svg version="1.1" id="Capa_1" xmlns="http://www.w3.org/2000/svg" xmlns:xlink="http://www.w3.org/1999/xlink" x="0px" y="0px"
	 viewBox="0 0 512 512" style="enable-background:new 0 0 512 512;" xml:space="preserve">
<style type="text/css">
	.st0{fill:#363636;}
</style>
<g>
	<g>
		<polygon class="st0" points="80.4,315.9 36.5,452 172.6,408.1 		"/>
	</g>
</g>
<g>
	<g>
		
			<rect x="113.4" y="158" transform="matrix(0.7071 -0.7071 0.7071 0.7071 -80.6928 252.8638)" class="st0" width="302.9" height="131.7"/>
	</g>
</g>
<g>
	<g>
		<path class="st0" d="M468.9,81l-61.5-61.5c-8.8-8.8-22-8.8-30.7,0L357,39.3l92.2,92.2l19.8-19.8C477.7,103,477.7,89.8,468.9,81z"
			/>
	</g>
</g>
<path class="st0" d="M502,500H10c-5.5,0-10-4.5-10-10v-10c0-5.5,4.5-10,10-8h492c5.5-2,10,2.5,10,8v10C512,495.5,507.5,500,502,500z
	"/>
</svg>
