<?xml version="1.0" encoding="utf-8"?>
<!-- Generator: Adobe Illustrator 23.0.0, SVG Export Plug-In . SVG Version: 6.00 Build 0)  -->
<svg version="1.1" id="Capa_1" xmlns="http://www.w3.org/2000/svg" xmlns:xlink="http://www.w3.org/1999/xlink" x="0px" y="0px"
	 viewBox="0 0 349 349" style="enable-background:new 0 0 349 349;" xml:space="preserve">
<style type="text/css">
	.st0{fill:#FFFFFF;}
</style>
<g>
	<path class="st0" d="M349,141.2v66.6c0,5-4.1,9.1-9.1,9.1H216.9V340c0,5-4.1,9.1-9.1,9.1h-66.6c-5,0-9.1-4.1-9.1-9.1V216.9H9.1
		c-5,0-9.1-4.1-9.1-9.1v-66.6c0-5,4.1-9.1,9.1-9.1h123.1V9.1c0-5,4.1-9.1,9.1-9.1h66.6c5,0,9.1,4.1,9.1,9.1v123.1H340
		C345,132.1,349,136.2,349,141.2z"/>
</g>
</svg>
