<?xml version="1.0" encoding="utf-8"?>
<!-- Generator: Adobe Illustrator 23.0.0, SVG Export Plug-In . SVG Version: 6.00 Build 0)  -->
<svg version="1.1" id="Capa_1" xmlns="http://www.w3.org/2000/svg" xmlns:xlink="http://www.w3.org/1999/xlink" x="0px" y="0px"
	 viewBox="0 0 461.3 461.3" style="enable-background:new 0 0 461.3 461.3;" xml:space="preserve">
<style type="text/css">
	.st0{fill:#363636;}
</style>
<g>
	<g>
		<path class="st0" d="M230.7,156.4c-7.4,0-14.5,1.1-21.2,3.1c12,6.2,20.2,18.6,20.2,33c0,20.5-16.6,37.1-37.1,37.1
			c-14.4,0-26.9-8.2-33-20.2c-2,6.7-3.1,13.8-3.1,21.2c0,41,33.3,74.2,74.2,74.2c41,0,74.2-33.3,74.2-74.2S271.6,156.4,230.7,156.4z
			"/>
	</g>
</g>
<g>
	<g>
		<path class="st0" d="M455.9,215.3C430.8,184.1,341.2,82.2,230.7,82.2S30.5,184.1,5.4,215.3c-7.2,8.7-7.2,21.5,0,30.7
			c25.1,31.2,114.7,133.1,225.3,133.1S430.8,277.2,455.9,246C463.1,237.3,463.1,224.5,455.9,215.3z M230.7,338.2
			c-59.4,0-107.5-48.1-107.5-107.5s48.1-107.5,107.5-107.5s107.5,48.1,107.5,107.5S290,338.2,230.7,338.2z"/>
	</g>
</g>
</svg>
